<mxfile host="Electron" modified="2024-07-09T08:38:58.406Z" agent="Mozilla/5.0 (X11; Linux x86_64) AppleWebKit/537.36 (KHTML, like Gecko) draw.io/21.6.5 Chrome/114.0.5735.243 Electron/25.3.1 Safari/537.36" etag="DakVieORTE4UxMhf8_kW" version="21.6.5" type="device">
  <diagram name="Page-1" id="7hiu1xFrt5itlZQtS7pO">
    <mxGraphModel dx="794" dy="559" grid="1" gridSize="10" guides="1" tooltips="1" connect="1" arrows="1" fold="1" page="0" pageScale="1" pageWidth="850" pageHeight="1100" math="0" shadow="0">
      <root>
        <mxCell id="0" />
        <mxCell id="1" parent="0" />
        <mxCell id="Wvc02nEeIekhSJ_rZDgK-2" value=":ReactComponent" style="swimlane;fontStyle=0;childLayout=stackLayout;horizontal=1;startSize=26;fillColor=#dae8fc;horizontalStack=0;resizeParent=1;resizeParentMax=0;resizeLast=0;collapsible=1;marginBottom=0;html=1;strokeColor=#6c8ebf;" parent="1" vertex="1">
          <mxGeometry x="200" y="-190" width="170" height="52" as="geometry" />
        </mxCell>
        <mxCell id="Wvc02nEeIekhSJ_rZDgK-5" value="+ componentName: String" style="text;strokeColor=none;fillColor=none;align=left;verticalAlign=top;spacingLeft=4;spacingRight=4;overflow=hidden;rotatable=0;points=[[0,0.5],[1,0.5]];portConstraint=eastwest;whiteSpace=wrap;html=1;" parent="Wvc02nEeIekhSJ_rZDgK-2" vertex="1">
          <mxGeometry y="26" width="170" height="26" as="geometry" />
        </mxCell>
        <mxCell id="Wvc02nEeIekhSJ_rZDgK-6" value=":JSXElementType" style="swimlane;fontStyle=0;childLayout=stackLayout;horizontal=1;startSize=26;fillColor=#dae8fc;horizontalStack=0;resizeParent=1;resizeParentMax=0;resizeLast=0;collapsible=1;marginBottom=0;html=1;strokeColor=#6c8ebf;" parent="1" vertex="1">
          <mxGeometry x="210" y="-30" width="150" height="78" as="geometry" />
        </mxCell>
        <mxCell id="Wvc02nEeIekhSJ_rZDgK-7" value="+ globalFqn: String" style="text;strokeColor=none;fillColor=none;align=left;verticalAlign=top;spacingLeft=4;spacingRight=4;overflow=hidden;rotatable=0;points=[[0,0.5],[1,0.5]];portConstraint=eastwest;whiteSpace=wrap;html=1;" parent="Wvc02nEeIekhSJ_rZDgK-6" vertex="1">
          <mxGeometry y="26" width="150" height="26" as="geometry" />
        </mxCell>
        <mxCell id="Wvc02nEeIekhSJ_rZDgK-8" value="+ name: String" style="text;strokeColor=none;fillColor=none;align=left;verticalAlign=top;spacingLeft=4;spacingRight=4;overflow=hidden;rotatable=0;points=[[0,0.5],[1,0.5]];portConstraint=eastwest;whiteSpace=wrap;html=1;" parent="Wvc02nEeIekhSJ_rZDgK-6" vertex="1">
          <mxGeometry y="52" width="150" height="26" as="geometry" />
        </mxCell>
        <mxCell id="Wvc02nEeIekhSJ_rZDgK-9" value="" style="endArrow=classic;html=1;rounded=0;entryX=0.5;entryY=0;entryDx=0;entryDy=0;" parent="1" source="Wvc02nEeIekhSJ_rZDgK-5" target="Wvc02nEeIekhSJ_rZDgK-6" edge="1">
          <mxGeometry width="50" height="50" relative="1" as="geometry">
            <mxPoint x="280" y="-120" as="sourcePoint" />
            <mxPoint x="160" y="-90" as="targetPoint" />
          </mxGeometry>
        </mxCell>
        <mxCell id="Wvc02nEeIekhSJ_rZDgK-10" value="M" style="edgeLabel;html=1;align=center;verticalAlign=middle;resizable=0;points=[];" parent="Wvc02nEeIekhSJ_rZDgK-9" vertex="1" connectable="0">
          <mxGeometry x="0.6476" relative="1" as="geometry">
            <mxPoint x="7" as="offset" />
          </mxGeometry>
        </mxCell>
        <mxCell id="Wvc02nEeIekhSJ_rZDgK-11" value="N" style="edgeLabel;html=1;align=center;verticalAlign=middle;resizable=0;points=[];" parent="Wvc02nEeIekhSJ_rZDgK-9" vertex="1" connectable="0">
          <mxGeometry x="-0.8055" y="1" relative="1" as="geometry">
            <mxPoint x="6" as="offset" />
          </mxGeometry>
        </mxCell>
        <mxCell id="Wvc02nEeIekhSJ_rZDgK-4" value="RENDERS&lt;br&gt;+ cardinality: Integer" style="rounded=0;whiteSpace=wrap;html=1;dashed=1;dashPattern=1 1;" parent="1" vertex="1">
          <mxGeometry x="214.5" y="-94" width="141" height="30" as="geometry" />
        </mxCell>
        <mxCell id="Wvc02nEeIekhSJ_rZDgK-12" value=":Class" style="swimlane;fontStyle=0;childLayout=stackLayout;horizontal=1;startSize=26;fillColor=#f5f5f5;horizontalStack=0;resizeParent=1;resizeParentMax=0;resizeLast=0;collapsible=1;marginBottom=0;html=1;strokeColor=#666666;fontColor=#333333;" parent="1" vertex="1">
          <mxGeometry x="-50" y="-190" width="170" height="52" as="geometry" />
        </mxCell>
        <mxCell id="Wvc02nEeIekhSJ_rZDgK-15" value=":Variable" style="swimlane;fontStyle=0;childLayout=stackLayout;horizontal=1;startSize=26;fillColor=#f5f5f5;horizontalStack=0;resizeParent=1;resizeParentMax=0;resizeLast=0;collapsible=1;marginBottom=0;html=1;strokeColor=#666666;fontColor=#333333;" parent="1" vertex="1">
          <mxGeometry x="-50" y="-120" width="170" height="52" as="geometry" />
        </mxCell>
        <mxCell id="Wvc02nEeIekhSJ_rZDgK-16" value=":Function" style="swimlane;fontStyle=0;childLayout=stackLayout;horizontal=1;startSize=26;fillColor=#f5f5f5;horizontalStack=0;resizeParent=1;resizeParentMax=0;resizeLast=0;collapsible=1;marginBottom=0;html=1;strokeColor=#666666;fontColor=#333333;" parent="1" vertex="1">
          <mxGeometry x="-50" y="-50" width="170" height="52" as="geometry" />
        </mxCell>
        <mxCell id="Wvc02nEeIekhSJ_rZDgK-17" style="edgeStyle=orthogonalEdgeStyle;rounded=0;orthogonalLoop=1;jettySize=auto;html=1;exitX=0;exitY=0.003;exitDx=0;exitDy=0;entryX=1;entryY=0.5;entryDx=0;entryDy=0;dashed=1;endArrow=block;endFill=0;exitPerimeter=0;" parent="1" source="Wvc02nEeIekhSJ_rZDgK-5" target="Wvc02nEeIekhSJ_rZDgK-12" edge="1">
          <mxGeometry relative="1" as="geometry">
            <Array as="points">
              <mxPoint x="160" y="-164" />
            </Array>
            <mxPoint x="200" y="-161" as="sourcePoint" />
          </mxGeometry>
        </mxCell>
        <mxCell id="Wvc02nEeIekhSJ_rZDgK-18" style="edgeStyle=orthogonalEdgeStyle;rounded=0;orthogonalLoop=1;jettySize=auto;html=1;entryX=1;entryY=0.5;entryDx=0;entryDy=0;dashed=1;endArrow=block;endFill=0;" parent="1" target="Wvc02nEeIekhSJ_rZDgK-15" edge="1">
          <mxGeometry relative="1" as="geometry">
            <mxPoint x="160" y="-160" as="sourcePoint" />
            <mxPoint x="130" y="-120" as="targetPoint" />
            <Array as="points">
              <mxPoint x="160" y="-94" />
            </Array>
          </mxGeometry>
        </mxCell>
        <mxCell id="Wvc02nEeIekhSJ_rZDgK-19" style="edgeStyle=orthogonalEdgeStyle;rounded=0;orthogonalLoop=1;jettySize=auto;html=1;entryX=1;entryY=0.5;entryDx=0;entryDy=0;dashed=1;endArrow=block;endFill=0;" parent="1" target="Wvc02nEeIekhSJ_rZDgK-16" edge="1">
          <mxGeometry relative="1" as="geometry">
            <mxPoint x="160" y="-90" as="sourcePoint" />
            <mxPoint x="120" y="-30.5" as="targetPoint" />
            <Array as="points">
              <mxPoint x="160" y="-24" />
            </Array>
          </mxGeometry>
        </mxCell>
        <mxCell id="Wvc02nEeIekhSJ_rZDgK-26" style="edgeStyle=orthogonalEdgeStyle;rounded=0;orthogonalLoop=1;jettySize=auto;html=1;exitX=1;exitY=0.5;exitDx=0;exitDy=0;entryX=1;entryY=0.5;entryDx=0;entryDy=0;" parent="1" source="Wvc02nEeIekhSJ_rZDgK-7" edge="1">
          <mxGeometry relative="1" as="geometry">
            <Array as="points">
              <mxPoint x="420" y="9" />
              <mxPoint x="420" y="-161" />
            </Array>
            <mxPoint x="370" y="-161" as="targetPoint" />
          </mxGeometry>
        </mxCell>
        <mxCell id="Wvc02nEeIekhSJ_rZDgK-27" value="REFERENCES" style="edgeLabel;html=1;align=center;verticalAlign=middle;resizable=0;points=[];" parent="Wvc02nEeIekhSJ_rZDgK-26" vertex="1" connectable="0">
          <mxGeometry x="0.0635" y="1" relative="1" as="geometry">
            <mxPoint y="1" as="offset" />
          </mxGeometry>
        </mxCell>
        <mxCell id="Wvc02nEeIekhSJ_rZDgK-28" value="N" style="edgeLabel;html=1;align=center;verticalAlign=middle;resizable=0;points=[];" parent="Wvc02nEeIekhSJ_rZDgK-26" vertex="1" connectable="0">
          <mxGeometry x="-0.9417" y="1" relative="1" as="geometry">
            <mxPoint y="-7" as="offset" />
          </mxGeometry>
        </mxCell>
        <mxCell id="Wvc02nEeIekhSJ_rZDgK-29" value="0..1" style="edgeLabel;html=1;align=center;verticalAlign=middle;resizable=0;points=[];" parent="Wvc02nEeIekhSJ_rZDgK-26" vertex="1" connectable="0">
          <mxGeometry x="0.8628" y="2" relative="1" as="geometry">
            <mxPoint x="2" y="-10" as="offset" />
          </mxGeometry>
        </mxCell>
      </root>
    </mxGraphModel>
  </diagram>
</mxfile>
